<?xml version="1.0" standalone="no"?>
<!DOCTYPE svg PUBLIC "-//W3C//DTD SVG 20010904//EN"
 "http://www.w3.org/TR/2001/REC-SVG-20010904/DTD/svg10.dtd">
<svg version="1.0" xmlns="http://www.w3.org/2000/svg"
 width="130.000000pt" height="130.000000pt" viewBox="0 0 130.000000 130.000000"
 preserveAspectRatio="xMidYMid meet">

<g transform="translate(0.000000,130.000000) scale(0.100000,-0.100000)"
fill="#000000" stroke="none">
<path d="M615 1140 l-69 -70 32 -33 c47 -49 43 -63 -24 -71 -114 -13 -218 -67
-250 -129 -9 -16 -18 -68 -21 -115 -4 -72 -2 -97 15 -144 11 -32 30 -70 41
-84 12 -15 21 -35 21 -45 0 -18 14 -19 323 -19 l322 0 36 63 c49 84 63 142 56
231 -5 74 -22 121 -52 146 -14 12 -26 4 -96 -66 l-79 -79 -27 28 -28 27 74 74
73 74 -48 16 c-27 9 -70 19 -97 22 -26 4 -50 11 -53 16 -4 6 11 27 32 49 l38
39 -69 70 c-38 39 -72 70 -75 70 -3 0 -37 -31 -75 -70z m115 -35 l34 -35 -37
-38 -37 -37 -37 37 -37 38 34 35 c19 19 37 35 40 35 3 0 21 -16 40 -35z m-2
-169 c15 -7 53 -17 86 -21 l59 -7 -64 -64 -64 -64 63 -62 62 -63 79 79 80 80
11 -28 c14 -37 13 -135 -2 -177 -6 -19 -25 -55 -41 -81 l-29 -48 -277 0 c-316
0 -290 -7 -337 94 -23 51 -26 67 -22 140 3 55 10 90 22 108 25 39 110 77 203
92 43 7 87 18 98 24 26 15 41 15 73 -2z"/>
<path d="M280 321 l-75 -28 -3 -87 c-2 -66 0 -86 10 -86 8 0 49 14 91 30 73
28 87 30 213 30 l134 0 0 85 0 85 -147 -1 c-137 0 -154 -2 -223 -28z m320 -61
l0 -40 -129 0 c-92 0 -139 -4 -164 -15 -51 -21 -57 -19 -57 16 0 27 6 33 53
54 45 21 67 24 175 24 l122 1 0 -40z"/>
<path d="M720 265 l0 -85 138 0 c129 0 142 -2 215 -30 43 -17 83 -30 88 -30 6
0 9 35 7 87 l-3 87 -70 27 c-65 26 -81 28 -222 28 l-153 1 0 -85z m344 14 c53
-20 56 -24 56 -55 0 -40 -3 -40 -65 -14 -38 16 -69 20 -166 20 l-119 0 0 35 0
35 119 0 c98 0 129 -4 175 -21z"/>
</g>
</svg>
