<?xml version="1.0" standalone="no"?>
<!DOCTYPE svg PUBLIC "-//W3C//DTD SVG 20010904//EN"
 "http://www.w3.org/TR/2001/REC-SVG-20010904/DTD/svg10.dtd">
<svg version="1.0" xmlns="http://www.w3.org/2000/svg"
 width="130.000000pt" height="130.000000pt" viewBox="0 0 130.000000 130.000000"
 preserveAspectRatio="xMidYMid meet">

<g transform="translate(0.000000,130.000000) scale(0.100000,-0.100000)"
fill="#000000" stroke="none">
<path d="M578 1150 c-31 -24 -52 -72 -46 -105 4 -21 1 -25 -18 -25 -22 0 -24
-4 -24 -44 l0 -43 -82 -5 c-60 -3 -96 -11 -128 -27 -125 -64 -181 -149 -188
-286 -6 -123 13 -181 83 -242 l55 -48 0 -103 0 -102 413 2 412 3 3 103 3 102
53 53 c63 61 76 96 76 208 0 110 -23 172 -85 234 -72 71 -131 98 -232 103
l-83 5 0 43 c0 37 -3 44 -20 44 -17 0 -20 7 -20 41 0 33 -6 47 -34 75 -27 27
-42 34 -74 34 -24 0 -49 -8 -64 -20z m110 -42 c17 -17 15 -74 -4 -92 -8 -9
-28 -16 -44 -16 -51 0 -76 51 -50 101 12 22 78 27 98 7z m8 -303 c-20 -74 -36
-137 -36 -140 0 -3 -8 -5 -18 -5 -16 0 -25 25 -58 154 -21 85 -36 157 -33 160
2 3 26 -3 52 -12 46 -16 49 -16 85 3 l37 20 3 -22 c2 -12 -13 -83 -32 -158z
m-128 -137 c29 -117 52 -234 52 -259 0 -43 -2 -47 -37 -63 -132 -58 -295 -28
-385 72 -48 53 -61 98 -56 191 5 92 34 158 92 207 53 45 107 62 201 63 l81 1
52 -212z m407 188 c71 -32 109 -68 139 -128 22 -43 26 -66 26 -136 0 -103 -13
-134 -83 -194 -83 -71 -110 -82 -207 -83 -67 0 -95 5 -132 22 l-48 22 0 64 c0
52 67 368 95 445 3 8 29 12 82 12 61 0 89 -5 128 -24z m-260 -570 c70 -30 145
-33 219 -11 27 8 53 15 58 15 4 0 8 -25 8 -55 l0 -55 -360 0 -360 0 0 55 c0
30 3 55 6 55 3 0 34 -7 68 -16 80 -21 157 -15 226 18 30 15 60 25 65 23 6 -2
37 -15 70 -29z"/>
</g>
</svg>
