<?xml version="1.0" standalone="no"?>
<!DOCTYPE svg PUBLIC "-//W3C//DTD SVG 20010904//EN"
 "http://www.w3.org/TR/2001/REC-SVG-20010904/DTD/svg10.dtd">
<svg version="1.0" xmlns="http://www.w3.org/2000/svg"
 width="130.000000pt" height="130.000000pt" viewBox="0 0 130.000000 130.000000"
 preserveAspectRatio="xMidYMid meet">

<g transform="translate(0.000000,130.000000) scale(0.100000,-0.100000)"
fill="#000000" stroke="none">
<path d="M660 1123 l0 -71 -46 -11 c-69 -18 -121 -47 -181 -104 -53 -50 -66
-77 -38 -77 33 0 10 -31 -95 -129 -135 -126 -137 -134 -54 -210 70 -64 87 -65
205 -6 l90 46 50 -56 c40 -42 58 -55 80 -55 25 0 29 -4 29 -28 0 -18 -13 -43
-35 -69 -34 -40 -35 -40 -121 -47 -172 -14 -284 -73 -284 -150 l0 -36 446 0
445 0 -3 323 c-3 313 -4 323 -26 368 -49 100 -127 167 -254 220 -56 24 -89 47
-140 97 l-68 66 0 -71z m195 -144 c58 -24 94 -48 135 -89 95 -94 95 -90 98
-428 l3 -292 -381 0 c-209 0 -380 4 -380 8 0 34 108 70 238 79 l83 6 49 54
c49 54 50 56 50 119 l0 64 -44 0 c-41 0 -48 4 -95 57 -28 31 -51 61 -51 65 0
5 -50 -17 -111 -47 -64 -33 -118 -54 -128 -50 -9 3 -33 21 -52 41 l-34 36 108
102 c86 81 107 106 107 129 0 15 -5 27 -12 27 -18 0 52 69 97 95 36 21 64 30
148 49 22 5 27 12 27 38 l0 32 33 -30 c17 -17 68 -46 112 -65z"/>
<path d="M550 892 l0 -42 47 0 c26 0 43 3 38 8 -6 4 -27 23 -47 41 l-38 35 0
-42z"/>
</g>
</svg>
