<?xml version="1.0" standalone="no"?>
<!DOCTYPE svg PUBLIC "-//W3C//DTD SVG 20010904//EN"
 "http://www.w3.org/TR/2001/REC-SVG-20010904/DTD/svg10.dtd">
<svg version="1.0" xmlns="http://www.w3.org/2000/svg"
 width="130.000000pt" height="130.000000pt" viewBox="0 0 130.000000 130.000000"
 preserveAspectRatio="xMidYMid meet">

<g transform="translate(0.000000,130.000000) scale(0.100000,-0.100000)"
fill="#000000" stroke="none">
<path d="M601 1036 c-48 -26 -63 -84 -36 -136 14 -28 14 -29 -20 -48 -53 -32
-85 -91 -85 -157 0 -65 17 -103 61 -138 l32 -25 -49 -16 c-61 -20 -140 -79
-175 -131 -35 -51 -49 -106 -49 -194 l0 -71 371 0 371 0 -4 93 c-2 74 -8 102
-28 141 -37 73 -118 138 -214 170 -17 6 -15 10 16 42 85 85 69 215 -34 283
-36 23 -37 24 -23 52 48 91 -45 184 -134 135z m87 -48 c7 -7 12 -24 12 -38 0
-14 -5 -31 -12 -38 -7 -7 -24 -12 -38 -12 -14 0 -31 5 -38 12 -15 15 -15 61 0
76 15 15 61 15 76 0z m58 -179 c56 -52 69 -117 36 -178 -49 -91 -200 -95 -257
-7 -40 60 -9 166 58 200 47 24 129 17 163 -15z m-23 -324 c161 -42 246 -131
247 -257 l0 -58 -320 0 -320 0 0 48 c0 70 17 119 57 163 52 58 172 111 263
118 9 1 42 -6 73 -14z"/>
</g>
</svg>
