<?xml version="1.0" standalone="no"?>
<!DOCTYPE svg PUBLIC "-//W3C//DTD SVG 20010904//EN"
 "http://www.w3.org/TR/2001/REC-SVG-20010904/DTD/svg10.dtd">
<svg version="1.0" xmlns="http://www.w3.org/2000/svg"
 width="130.000000pt" height="130.000000pt" viewBox="0 0 130.000000 130.000000"
 preserveAspectRatio="xMidYMid meet">

<g transform="translate(0.000000,130.000000) scale(0.100000,-0.100000)"
fill="#000000" stroke="none">
<path d="M591 917 c-30 -144 -57 -269 -60 -279 -4 -10 -35 49 -86 162 -44 99
-83 176 -87 172 -3 -4 -20 -76 -37 -161 -17 -85 -33 -156 -35 -158 -2 -2 -12
6 -22 19 -11 13 -37 37 -60 55 -22 18 -53 50 -69 73 -15 22 -29 39 -31 37 -2
-1 24 -115 56 -252 54 -227 60 -260 60 -362 l0 -113 425 0 425 0 0 102 c0 89
7 132 60 357 34 141 63 262 65 269 8 24 -3 11 -34 -37 -18 -27 -43 -57 -57
-66 -14 -9 -43 -33 -65 -52 -22 -20 -41 -34 -43 -32 -1 2 -15 76 -30 164 -15
88 -29 161 -31 163 -4 4 -20 -31 -110 -235 -28 -62 -53 -113 -56 -113 -3 0
-29 116 -59 258 -29 141 -55 265 -59 274 -4 10 -30 -98 -60 -245z m115 -257
c26 -118 50 -221 53 -228 4 -7 32 48 64 130 32 79 65 160 75 182 l17 38 25
-136 c13 -76 27 -139 31 -141 3 -3 19 13 34 35 26 38 75 79 75 63 0 -5 -14
-77 -32 -160 l-33 -153 -125 0 c-134 0 -158 7 -221 66 l-25 24 -25 -26 c-49
-53 -87 -64 -218 -64 -117 0 -121 1 -126 23 -3 12 -16 74 -30 137 -14 63 -28
125 -30 138 l-6 23 32 -23 c17 -13 43 -40 58 -60 l28 -38 17 98 c10 53 22 119
28 146 l11 50 69 -175 c38 -95 73 -177 77 -182 4 -4 31 104 61 239 36 161 57
240 62 228 4 -11 28 -116 54 -234z m-35 -366 c33 -40 90 -56 216 -62 l123 -5
0 -33 0 -34 -365 0 -365 0 0 35 0 35 89 0 c120 0 188 14 236 49 48 35 49 35
66 15z"/>
</g>
</svg>
