<?xml version="1.0" standalone="no"?>
<!DOCTYPE svg PUBLIC "-//W3C//DTD SVG 20010904//EN"
 "http://www.w3.org/TR/2001/REC-SVG-20010904/DTD/svg10.dtd">
<svg version="1.0" xmlns="http://www.w3.org/2000/svg"
 width="130.000000pt" height="130.000000pt" viewBox="0 0 130.000000 130.000000"
 preserveAspectRatio="xMidYMid meet">

<g transform="translate(0.000000,130.000000) scale(0.100000,-0.100000)"
fill="#000000" stroke="none">
<path d="M320 920 l0 -130 40 0 c29 0 40 -4 40 -15 0 -8 -16 -114 -35 -235
-19 -121 -35 -225 -35 -230 0 -6 -16 -10 -35 -10 l-35 0 0 -95 0 -95 398 2
397 3 3 92 3 93 -36 0 c-19 0 -35 3 -35 8 0 4 -18 108 -40 232 -22 123 -40
230 -40 237 0 9 15 13 45 13 l45 0 0 130 0 130 -90 0 -90 0 0 -35 c0 -33 -2
-35 -35 -35 -33 0 -35 2 -35 35 l0 35 -90 0 -90 0 0 -35 c0 -33 -2 -35 -35
-35 -33 0 -35 2 -35 35 l0 35 -90 0 -90 0 0 -130z m130 45 l0 -35 80 0 80 0 0
35 c0 35 0 35 45 35 45 0 45 0 45 -35 l0 -35 80 0 80 0 0 35 c0 35 0 35 45 35
l45 0 0 -85 0 -85 -295 0 -295 0 0 85 0 85 45 0 c45 0 45 0 45 -35z m410 -178
c0 -1 18 -104 40 -227 22 -124 40 -233 40 -242 0 -17 -20 -18 -283 -18 l-284
0 29 178 c15 97 33 207 39 245 l11 67 204 0 c112 0 204 -1 204 -3z m150 -582
l0 -45 -352 2 -353 3 -3 43 -3 42 355 0 356 0 0 -45z"/>
</g>
</svg>
